<svg width="350" height="46" viewBox="0 0 350 46" fill="none" xmlns="http://www.w3.org/2000/svg">
<g clip-path="url(#clip0_1603_322)">
<path d="M23 46C35.7025 46 46 35.7025 46 23C46 10.2975 35.7025 0 23 0C10.2975 0 0 10.2975 0 23C0 35.7025 10.2975 46 23 46Z" fill="#3A67FA"/>
<path d="M44.6724 30.7135L34.2384 20.2796L26.3037 21.4993L20.1594 15.9951L11.7448 17.166L9.97266 30.7405L24.3148 45.9618C33.7368 45.4303 41.6416 39.2282 44.6724 30.7135Z" fill="#2451D1"/>
<path d="M20.979 21.7033C21.4347 20.9938 21.695 20.1477 21.6799 19.2402C21.6398 16.8121 19.619 14.8828 17.1906 14.8828H10.4108C10.0933 14.8828 9.83594 15.1402 9.83594 15.4577V30.3675C9.83594 30.685 10.0933 30.9424 10.4108 30.9424H17.9843C20.7951 30.9424 23.1236 28.6893 23.1348 25.8785C23.1421 24.1559 22.2875 22.6288 20.979 21.7033ZM12.8102 17.8572H17.2487C18.0523 17.8572 18.7064 18.5111 18.7064 19.3149C18.7064 20.1185 18.0523 20.7725 17.2487 20.7725H12.8102V17.8572ZM18.0502 27.968H12.8102V23.7469H18.0502C19.2139 23.7469 20.1608 24.694 20.1608 25.8575C20.1606 27.0212 19.214 27.968 18.0502 27.968Z" fill="white"/>
<path d="M36.1642 24.8206C36.1642 21.349 33.428 18.5244 30.0646 18.5244C26.701 18.5244 23.9648 21.349 23.9648 24.8206C23.9648 28.2924 26.7013 31.1166 30.0646 31.1166C32.1053 31.1166 34.0017 30.0706 35.1375 28.3182C35.2789 28.0995 35.4076 27.8712 35.5217 27.6359C35.6045 27.4651 35.4788 27.2662 35.2889 27.266L32.2906 27.2585C32.2245 27.2585 32.1613 27.2854 32.1139 27.3317C31.5476 27.8822 30.8536 28.1425 30.0648 28.1425C28.5745 28.1425 27.3255 27.028 27.0145 25.5424H35.5675C35.8971 25.5424 36.1643 25.2751 36.1643 24.9453V24.8205H36.1642V24.8206ZM30.0646 21.4988C31.1558 21.4988 32.1177 22.0971 32.6768 23.0005H27.452C28.0113 22.0971 28.9732 21.4988 30.0646 21.4988Z" fill="#D1D1D1"/>
<path d="M32.6016 17.7858H27.1914C26.9391 17.7858 26.7344 17.5811 26.7344 17.3288V15.9717C26.7344 15.7194 26.9391 15.5146 27.1914 15.5146H32.6016C32.8539 15.5146 33.0584 15.7194 33.0584 15.9717V17.3288C33.0585 17.5814 32.8539 17.7858 32.6016 17.7858Z" fill="#D1D1D1"/>
</g>
<path d="M83.5 1.49414C95.1016 1.49414 104.488 10.8809 104.488 22.4648C104.488 34.0488 95.1016 43.4531 83.5 43.4531C71.8984 43.4531 62.5117 34.0664 62.5117 22.4824C62.5117 10.8984 71.8984 1.49414 83.5 1.49414Z" fill="#E74D89"/>
<path d="M83.5 45.9473C71.0898 45.9473 61 35.875 61 23.4824C61 11.0723 71.0898 1 83.5 1C95.9102 1 106 11.0723 106 23.4648C106 35.8574 95.9102 45.9473 83.5 45.9473ZM102.467 26.541C101.816 26.3301 96.5254 24.7656 90.4961 25.7148C93.0098 32.6055 94.0293 38.2305 94.2227 39.3906C98.5469 36.4902 101.623 31.8848 102.467 26.541ZM91.0059 41.166C90.7246 39.4785 89.5996 33.6074 86.9102 26.6113C86.875 26.6289 86.8223 26.6465 86.7871 26.6465C75.9414 30.4258 72.0566 37.9316 71.7051 38.6348C74.957 41.166 79.0527 42.6777 83.5 42.6777C86.1543 42.6953 88.7031 42.1504 91.0059 41.166ZM69.2266 36.332C69.666 35.5938 74.9395 26.875 84.8535 23.6582C85.0996 23.5703 85.3633 23.5 85.6094 23.4297C85.1348 22.3398 84.6074 21.25 84.0449 20.1777C74.4473 23.043 65.1309 22.9199 64.2871 22.9023C64.2871 23.0957 64.2695 23.2891 64.2695 23.4824C64.2871 28.4219 66.1504 32.9219 69.2266 36.332ZM64.6914 19.5625C65.5527 19.5801 73.4629 19.6152 82.4629 17.2246C79.2812 11.5645 75.8359 6.81836 75.3438 6.13281C69.9473 8.66406 65.9395 13.6211 64.6914 19.5625ZM79 4.83203C79.5273 5.53516 83.0254 10.2812 86.1719 16.0645C93.0098 13.498 95.8926 9.63086 96.2441 9.13867C92.8516 6.13281 88.3867 4.30469 83.5 4.30469C81.9531 4.30469 80.4414 4.49805 79 4.83203ZM98.3711 11.3535C97.9668 11.8984 94.75 16.0293 87.6484 18.9297C88.0879 19.8438 88.5273 20.7754 88.9316 21.707C89.0723 22.041 89.2129 22.375 89.3535 22.6914C95.752 21.8828 102.098 23.1836 102.73 23.3066C102.678 18.7891 101.061 14.623 98.3711 11.3535Z" fill="#B2215A"/>
<rect x="121" width="46" height="46" rx="23" fill="#FEC9D3"/>
<path d="M150.908 22.1484C152.601 22.1484 153.876 21.4258 154.815 20.1676L153.559 19.1857C153.249 19.6046 152.848 19.9441 152.388 20.1772C151.928 20.4103 151.421 20.5307 150.908 20.5289C149.071 20.5289 147.739 18.9952 147.739 17.1132C147.739 15.2312 149.049 13.6111 150.96 13.6111C151.81 13.6111 152.411 13.8166 152.935 14.1492V15.804H154.515V13.3911L154.212 13.147C153.343 12.4465 152.016 12.0747 150.907 12.0747C148.196 12.0747 145.99 14.3344 145.99 17.1126C145.99 19.8881 148.195 22.1484 150.907 22.1484H150.908ZM154.187 32.0854L154.131 29.7661V24.1064H150.835V25.7265H152.466V29.5664C152.466 31.2206 151.233 32.3917 149.989 32.3917C148.745 32.3917 148.096 31.508 148.096 29.8545V24.1057H145.017V25.7259H146.431V30.1353C146.431 32.3793 147.659 33.9255 149.849 33.9255C151.108 33.9255 152.066 33.21 152.638 32.107H152.664L152.889 33.6492H155.422V32.0873H154.189V32.0841L154.187 32.0854ZM145.626 12.3123H142.879L140.49 19.4213H140.453L138.076 12.3123H135.149V13.9331H136.795L139.628 22.0359H141.134V22.0339L144.088 13.9338H145.625V12.313L145.626 12.3123ZM132.578 33.6702H134.206V32.0029H132.578V33.6702H132.578ZM138.864 25.9851H138.846L138.744 24.1064H135.839V25.5832H137.385V32.086H135.839V33.6486H143.02V32.1168H139.021V28.1924C139.202 26.7719 140.242 25.5589 141.66 25.5589H141.686L141.657 27.0109H143.237V24.0795H141.988C140.557 24.0756 139.495 24.869 138.864 25.9857L138.864 25.9851Z" fill="#0E0E0E"/>
<rect x="182" width="46" height="46" rx="23" fill="#0077FF"/>
<path fill-rule="evenodd" clip-rule="evenodd" d="M208.373 12C214.533 12 216 13.4667 216 19.6267V26.3733C216 32.5333 214.533 34 208.373 34H201.627C195.467 34 194 32.5333 194 26.3733V19.6267C194 13.4667 195.467 12 201.627 12H208.373ZM199.958 18.875H198.354C197.896 18.875 197.804 19.095 197.804 19.3242C197.804 19.755 198.345 21.8633 200.334 24.65C200.86 25.4908 201.578 26.195 202.429 26.7049C203.28 27.2147 204.24 27.5158 205.229 27.5833C206.247 27.5833 206.375 27.3542 206.375 26.96V25.5208C206.375 25.0625 206.476 24.9708 206.797 24.9708C207.118 24.9708 207.438 25.09 208.392 26.0067C209.483 27.0975 209.657 27.5833 210.271 27.5833H211.875C212.333 27.5833 212.563 27.3542 212.434 26.905C212.093 26.2057 211.634 25.5701 211.077 25.0258C210.702 24.5767 210.161 24.1092 209.968 23.8708C209.776 23.6325 209.803 23.4217 209.968 23.1558C210.818 22.014 211.543 20.7848 212.132 19.4892C212.233 19.15 212.132 18.9025 211.646 18.9025H210.042C209.893 18.8943 209.746 18.9334 209.62 19.014C209.495 19.0947 209.399 19.2129 209.345 19.3517C208.848 20.5339 208.184 21.639 207.374 22.6333C206.998 23.0092 206.824 23.1283 206.623 23.1283C206.421 23.1283 206.375 23.0092 206.375 22.67V19.4617C206.375 19.0583 206.256 18.875 205.917 18.875H203.396C203.293 18.87 203.192 18.9055 203.115 18.9741C203.038 19.0426 202.99 19.1387 202.983 19.2417C202.983 19.6267 203.57 19.7183 203.625 20.8092V23.165C203.625 23.6875 203.533 23.7792 203.332 23.7792C202.782 23.7792 201.498 21.7808 200.673 19.4983C200.527 19.0583 200.417 18.875 199.958 18.875Z" fill="white"/>
<rect x="243" width="46" height="46" rx="23" fill="#629FBC"/>
<path fill-rule="evenodd" clip-rule="evenodd" d="M269.056 24.0868C269.138 24.1193 269.226 24.1519 269.319 24.1857C269.355 24.0777 269.385 23.9502 269.4 23.807C269.275 23.8057 269.152 23.8031 269.034 23.7992C269.042 23.8994 269.049 23.9983 269.056 24.0868ZM265.065 14.1186C265.531 14.237 266.158 14.3711 266.626 14.3789C265.794 13.2428 264.435 12.9799 263.2 13.3157C264.017 13.494 264.62 13.7816 265.065 14.1186ZM267.156 14.2865C266.993 14.0236 266.767 13.7425 266.452 13.4888C266.481 13.4549 266.517 13.4107 266.557 13.3599C267.006 13.4927 267.355 13.6657 267.625 13.8479C267.496 14.0301 267.338 14.1928 267.156 14.2865ZM267.839 13.4875C267.985 13.1986 268.059 12.95 268.06 12.9487C268.055 12.9721 268.016 13.2246 267.889 13.5213C268.141 13.697 268.335 13.8792 268.481 14.047C268.699 13.8297 269.07 13.3834 269.087 12.8498C269.111 12.1315 268.556 12.0755 268.555 12.0755C268.509 12.0703 268.477 12.03 268.482 11.9844C268.487 11.9389 268.528 11.9064 268.573 11.9116C268.576 11.9116 269.278 11.9818 269.251 12.8537C269.232 13.4523 268.818 13.9429 268.585 14.1733C268.646 14.2526 268.695 14.3268 268.736 14.3932L269.685 13.7022C270.219 12.9331 270.183 12.1367 270.183 12.1341C270.182 12.0885 270.217 12.0508 270.262 12.0495C270.308 12.0482 270.346 12.0833 270.347 12.1289C270.347 12.1315 270.376 12.76 270.022 13.4562L273.087 11.2232L268.967 14.9163C269.073 15.213 269.085 15.4772 269.057 15.7297L269.108 15.7479C270.096 15.0985 271.219 14.6574 271.223 14.6561C271.22 14.6574 270.452 15.3002 269.573 15.9327C269.764 16.0147 269.971 16.1096 270.184 16.2203C270.398 16.0979 270.756 15.9118 271.147 15.7856C271.447 15.4264 271.665 15.2963 271.666 15.295C271.698 15.2755 271.738 15.2859 271.758 15.3158C271.777 15.3471 271.767 15.3874 271.737 15.4069C271.735 15.4069 271.592 15.4928 271.38 15.7192C271.488 15.6932 271.597 15.6724 271.705 15.6607C271.936 15.636 272.111 15.6633 272.244 15.7192C272.351 15.5865 272.443 15.446 272.511 15.2976C272.842 14.5741 272.29 14.889 272.287 14.8903C272.256 14.9085 272.216 14.8968 272.197 14.8656C272.179 14.8343 272.191 14.794 272.222 14.7758C272.225 14.7745 273.129 14.2592 272.629 15.3523C272.56 15.5032 272.468 15.6464 272.361 15.7817C272.633 15.9613 272.665 16.2619 272.665 16.2632C272.67 16.3088 272.637 16.3491 272.592 16.3543C272.546 16.3595 272.506 16.327 272.501 16.2814C272.501 16.2801 272.477 16.0472 272.252 15.9118C271.894 16.3127 271.43 16.6237 271.141 16.7968C271.656 17.1598 272.145 17.6088 272.499 18.154C273.048 17.6921 273.534 17.5736 273.686 18.3766L273.687 18.3792L273.697 18.4286C273.736 18.3688 273.773 18.3115 273.812 18.2555C273.916 18.1059 274.015 18.0057 274.106 17.9419C274.122 17.8964 274.13 17.8703 274.13 17.8703C274.14 17.8352 274.178 17.8157 274.212 17.8274C274.233 17.8339 274.247 17.8495 274.253 17.8677C274.654 17.7428 274.894 18.3037 274.895 18.305C274.909 18.3375 274.895 18.3766 274.861 18.3922C274.829 18.4065 274.79 18.3922 274.774 18.3583C274.773 18.357 274.561 17.8599 274.207 18.0473C274.139 18.2295 273.995 18.5731 273.758 18.9557C273.792 19.4267 273.782 20.1164 273.553 20.7606L273.587 20.7788C273.552 20.8439 273.514 20.9024 273.475 20.9571C273.382 21.1705 273.262 21.3748 273.108 21.5622C272.403 22.4172 271.575 22.6267 271.156 22.6762C271.195 22.9091 271.199 23.1759 271.149 23.4778C271.622 23.4713 272.113 23.4609 272.589 23.4439C273.383 23.4153 274.132 23.3672 274.687 23.293C275.052 23.2435 275.258 23.1733 275.357 23.1056C275.248 23.1147 274.7 23.0952 275.064 22.8688C275.236 22.7607 275.425 22.7568 275.55 22.8102C275.641 22.8492 275.706 22.9169 275.729 23.0054C275.753 23.0939 275.733 23.1915 275.652 23.2826C275.539 23.4101 275.263 23.5481 274.731 23.6196C274.168 23.6951 273.406 23.7433 272.601 23.7732C272.097 23.7914 271.575 23.8018 271.074 23.8083C270.982 24.1232 270.844 24.3861 270.687 24.6034C271.454 24.7908 272.355 24.934 273.31 24.934C276.057 24.934 277.418 24.4408 277.418 24.4408C277.418 24.4408 275.779 25.2736 273.745 25.3556C273.68 25.5729 273.48 25.9048 272.869 25.9048C272.219 25.9048 271.325 25.4623 270.869 25.2099C271.273 25.7889 271.324 26.5775 271.324 26.5802C271.328 26.6257 271.293 26.6647 271.249 26.6686C271.203 26.6725 271.164 26.6374 271.16 26.5932C271.16 26.5906 271.09 25.5196 270.473 25.0212L270.338 24.9951C270.102 25.2125 269.867 25.3556 269.698 25.4415L271.642 27.7722L271.473 27.9218L269.485 25.6822C269.448 25.72 269.403 25.7616 269.354 25.8059C269.219 26.0752 268.994 26.4448 268.633 26.8456C268.905 26.9029 269.333 27.0629 269.695 27.508C270.296 28.2472 269.532 28.8965 269.531 28.8978L269.472 28.8406C269.474 28.8393 270.076 28.2354 269.569 27.6108C269.186 27.1397 268.725 27.0187 268.502 26.9875C268.34 27.1553 268.154 27.3284 267.941 27.5002C268.115 27.7618 268.287 28.0546 268.384 28.3187C268.463 28.5295 268.517 28.782 268.509 29.0306C268.483 29.8907 267.699 30.1718 266.935 30.1484C266.723 30.1419 266.505 30.1042 266.289 30.0443C266.396 30.5258 266.453 31.1088 266.397 31.7868C266.202 34.1422 264.189 33.9873 264.182 33.9886C264.188 33.9886 266.062 33.8494 266.233 31.7738C266.292 31.0697 266.21 30.4672 266.075 29.9766C265.731 29.8595 265.393 29.6903 265.076 29.5029C264.939 29.732 264.711 29.9037 264.337 29.8933C264.253 29.8907 264.171 29.8764 264.093 29.853C263.925 29.9011 263.723 29.8686 263.484 29.7059C263.316 29.5927 263.177 29.4574 263.058 29.3155C262.734 29.7944 262.397 30.2785 262.054 30.7548C261.999 31.8115 261.903 32.833 261.739 33.6503C261.499 34.8488 261.282 35.6999 260.629 35.4591C261.011 35.5359 261.3 34.815 261.502 33.809C261.657 33.0387 261.756 32.0783 261.818 31.0775C261.318 31.7555 260.808 32.4088 260.305 32.9931C259.927 33.4304 259.476 33.9014 259.058 34.0303C259.952 33.1805 260.919 31.9833 261.84 30.7145C261.866 30.2343 261.884 29.7489 261.897 29.2752C261.003 30.4646 260.056 31.6306 259.201 32.496C255.926 35.545 258.169 31.5265 258.32 31.697C258.316 31.7048 256.911 34.3751 259.016 32.2474C259.923 31.33 260.949 30.0872 261.908 28.8471L261.909 28.7508C261.692 28.7052 261.463 28.6467 261.235 28.5738C261.143 28.6805 261.051 28.782 260.966 28.8783C260.739 29.9805 260.031 30.7887 260.029 30.7913C259.999 30.8251 259.947 30.829 259.913 30.7991C259.879 30.7691 259.875 30.7171 259.905 30.6832C259.908 30.6806 260.466 30.0417 260.733 29.1347C260.643 29.2323 260.558 29.3234 260.48 29.4053C259.617 30.6091 259.273 30.1926 259.149 30.0716C259.119 30.0378 259.123 29.9857 259.158 29.9558C259.193 29.9259 259.244 29.9298 259.274 29.9649C259.275 29.9649 259.479 30.2226 260.362 29.2921C260.496 29.1503 260.648 28.985 260.813 28.8015C260.835 28.6831 260.852 28.5608 260.861 28.4358L260.782 28.402C260.484 28.5998 260.069 28.7286 259.49 28.6818C259.413 28.6753 259.339 28.6662 259.267 28.6558C259.109 28.8861 258.885 29.0527 258.628 29.1503C258.343 29.2583 258.019 29.2817 257.704 29.2153C257.39 29.149 257.082 28.9915 256.83 28.7391C256.542 28.4515 256.326 28.0389 256.253 27.495C256.105 26.3889 256.658 25.7785 257.174 25.4558C257.077 25.2229 257.026 25.0511 257.011 24.9964C256.918 24.9236 256.826 24.8468 256.735 24.7687L256.688 24.7817C256.688 24.7817 256.682 24.757 256.673 24.714C256.592 24.6438 256.512 24.5709 256.434 24.4967L256.433 24.498L256.423 24.4863C255.975 24.0556 255.6 23.5715 255.492 23.0952C255.332 22.3847 255.713 21.7834 256.142 21.3579L256.153 21.3449C256.278 21.2213 256.408 21.112 256.528 21.0196C256.581 20.6682 256.68 20.3572 256.804 20.0826C256.754 19.7065 256.731 19.3187 256.747 18.9309C256.753 18.7448 256.77 18.5588 256.795 18.3753C256.64 18.4117 256.48 18.4651 256.317 18.5392C256.117 18.629 255.955 18.7305 255.825 18.8385C255.575 19.0481 255.449 19.2823 255.406 19.5087C255.4 19.5465 255.395 19.5855 255.392 19.6232C255.469 19.6363 255.548 19.6545 255.625 19.6766C256.001 19.7872 256.36 20.0175 256.429 20.2921C256.469 20.4561 256.455 20.5927 256.402 20.6929C256.359 20.7736 256.293 20.8322 256.212 20.8647C256.136 20.8946 256.049 20.9024 255.955 20.8855C255.803 20.8582 255.631 20.7645 255.475 20.5953C255.251 20.5979 254.555 20.5589 254.583 19.9889C254.589 19.8432 254.665 19.7404 254.783 19.6766C254.877 19.6258 254.998 19.6024 255.13 19.6011C255.134 19.5543 255.14 19.5074 255.149 19.4593C255.202 19.1756 255.356 18.8867 255.657 18.6355C255.805 18.5132 255.987 18.3987 256.209 18.2985C256.427 18.2009 256.64 18.1358 256.843 18.0955C256.973 17.4396 257.24 16.8124 257.703 16.271C257.384 15.9665 256.909 15.5826 256.226 15.174C257.107 15.2651 257.685 15.6099 258.04 15.9262C258.358 15.6451 258.696 15.4655 259.041 15.3627C259.154 15.2872 259.267 15.226 259.379 15.1766C259.114 14.7914 258.51 14.129 257.209 13.4445C258.842 13.8284 259.552 14.5468 259.848 14.9931C259.854 14.9879 259.869 14.9775 259.889 14.9632L259.891 14.9619L259.892 14.9606L259.895 14.9593L259.906 14.9502L259.93 14.9345C260.004 14.8474 260.091 14.7498 260.191 14.6444C259.896 14.2175 259.331 13.576 258.28 12.8524C259.506 13.1921 260.189 13.8037 260.558 14.2917C261.75 13.2259 263.255 12.6676 264.798 12.6898C265.541 12.7015 266.153 12.7991 266.656 12.9474C267.056 12.4165 267.602 11.5628 267.381 11.1021C267.245 10.8158 266.986 10.6558 266.684 10.6662C266.405 10.6753 266.089 10.7625 265.783 10.9082C265.501 11.0436 265.229 11.2284 265.005 11.447C264.764 11.6825 264.707 11.8868 264.751 12.0365C264.772 12.1081 264.815 12.1679 264.872 12.2135C264.931 12.2603 265.004 12.2915 265.082 12.3059C265.83 12.4334 265.466 11.5029 265.276 11.8647C265.247 11.9181 265.187 11.9493 265.129 11.9311C264.509 11.7489 266.263 11.2765 265.665 12.2031C265.518 12.4308 265.273 12.505 265.054 12.4685C264.95 12.4503 264.851 12.4074 264.771 12.3423C264.689 12.2759 264.625 12.1887 264.594 12.0833C264.534 11.879 264.599 11.6149 264.889 11.3299C265.126 11.0982 265.414 10.903 265.712 10.7599C266.037 10.605 266.375 10.5113 266.677 10.5009C266.989 10.4905 267.265 10.5686 267.45 10.7573C267.506 10.8145 267.554 10.8822 267.591 10.9603C267.835 11.473 267.271 12.3983 266.829 13.0008C267.241 13.1387 267.571 13.3079 267.839 13.4875ZM267.687 13.8922L267.684 13.8961C267.545 14.0952 267.405 14.293 267.224 14.4023C267.256 14.4609 267.286 14.5194 267.313 14.5754C267.494 14.6509 267.682 14.7537 267.852 14.8578C267.93 14.9046 268.004 14.9541 268.075 15.0022L268.414 14.6899C268.317 14.5038 268.105 14.1902 267.687 13.8922ZM266.034 14.4531C265.869 14.4661 265.591 14.5715 265.549 14.5689C265.472 14.4804 265.388 14.3945 265.294 14.3099C265.529 14.3633 265.786 14.4153 266.034 14.4531ZM266.974 27.0955H267.023L267.008 27.0773L266.974 27.0955ZM267.189 27.089C267.221 27.0864 267.254 27.0838 267.287 27.0799C267.263 27.0408 267.237 27.0005 267.209 26.9575C267.182 26.9758 267.155 26.994 267.126 27.0109C267.147 27.0369 267.168 27.0629 267.189 27.089ZM267.428 27.0603L267.457 27.0551C267.399 26.981 267.35 26.9211 267.317 26.8808L267.315 26.8834C267.356 26.9445 267.395 27.0057 267.428 27.0603ZM267.598 27.0213C267.76 26.9758 267.915 26.9068 268.055 26.8079C268.145 26.7441 268.226 26.6804 268.297 26.6192C268.382 26.5112 268.459 26.4032 268.528 26.2952C268.461 26.3186 268.394 26.3407 268.321 26.3602L268.248 26.3784L268.218 26.4071C268.006 26.6036 267.727 26.7324 267.436 26.817C267.476 26.8651 267.532 26.9354 267.598 27.0213ZM267.454 27.3831L267.407 27.3909L267.45 27.4546L267.476 27.4351L267.454 27.3831ZM267.26 27.4065C266.855 27.4416 266.46 27.3818 266.166 27.3141C265.866 27.3401 265.572 27.3141 265.306 27.2633C265.044 27.3258 264.752 27.3896 264.47 27.4494C264.862 27.8281 265.778 28.5504 267.104 27.6967C267.187 27.6433 267.268 27.5874 267.346 27.5314C267.319 27.4937 267.29 27.4507 267.26 27.4065ZM256.662 23.9385C256.67 23.9111 256.678 23.8838 256.688 23.8578C256.73 23.7511 256.784 23.6782 256.844 23.6261C256.752 23.3385 256.671 23.0353 256.602 22.7126C256.545 22.4458 256.51 22.1921 256.494 21.9539C256.397 22.4432 256.332 23.1498 256.567 23.7354C256.594 23.807 256.627 23.8734 256.662 23.9385ZM256.978 24.0139C256.946 24.1193 256.942 24.2443 256.95 24.3575C257.045 24.4681 257.146 24.5683 257.246 24.6555C257.198 24.5527 257.151 24.4473 257.106 24.338L257.076 24.3445C257.076 24.3432 257.064 24.2937 257.052 24.2078C257.028 24.1441 257.003 24.0803 256.978 24.0139ZM261.122 16.2684C261.144 16.2996 261.175 16.3244 261.219 16.3374C261.412 16.3946 261.581 16.2801 261.581 16.2801C261.581 16.2801 261.581 16.5131 261.379 16.5417C261.299 16.5534 261.205 16.5391 261.12 16.5183C261.128 16.5859 261.143 16.6471 261.158 16.6992C261.329 16.6848 261.484 16.6809 261.614 16.6796C261.64 16.5105 261.664 16.3309 261.689 16.1513C261.539 16.0745 261.379 16.0016 261.213 15.9353C261.162 16.055 261.133 16.1669 261.122 16.2684ZM259.991 16.5651C259.991 16.5651 259.913 16.2463 259.892 15.649H259.878C259.45 16.1604 259.405 16.8098 259.426 17.1976C259.466 17.1741 259.508 17.152 259.551 17.1286C259.779 17.0089 260.02 16.9204 260.258 16.8553C260.138 16.6042 260.06 16.2359 260.164 15.7192C260.125 15.7791 260.087 15.8455 260.056 15.9184C259.947 16.1734 259.991 16.5651 259.991 16.5651ZM261.2 15.3249C261.291 15.2156 261.409 15.0829 261.543 14.9489C261.195 14.9385 261.005 15.0139 260.712 15.1167C260.77 15.135 260.828 15.1558 260.886 15.1779C260.992 15.2208 261.096 15.2703 261.2 15.3249ZM261.779 15.1766C261.667 15.2885 261.567 15.4004 261.485 15.4967C261.572 15.554 261.658 15.6151 261.744 15.6789C261.761 15.5162 261.772 15.3627 261.778 15.2286L261.779 15.1766ZM266.871 14.7849C266.766 14.7693 266.652 14.7615 266.539 14.7589C266.677 14.8044 266.807 14.8565 266.93 14.9124C266.911 14.8721 266.893 14.8291 266.871 14.7849ZM266.723 16.068C266.749 15.891 266.75 15.6763 266.741 15.4824C266.557 15.4577 266.339 15.4408 266.08 15.4343C266.203 15.7401 266.265 16.029 266.298 16.2684C266.425 16.2125 266.573 16.1422 266.723 16.068ZM267.895 26.4435C267.861 26.4487 267.828 26.4526 267.795 26.4552C267.764 26.4852 267.733 26.5164 267.7 26.5463C267.768 26.5164 267.834 26.4826 267.895 26.4435ZM268.736 25.4688C268.863 25.3855 268.956 25.3009 269.018 25.2385C269.079 25.0329 269.111 24.8585 269.121 24.731L269.072 24.7192C269.009 24.8455 268.91 25.029 268.772 25.2463C268.764 25.3179 268.753 25.392 268.736 25.4688ZM264.846 28.6167C264.823 28.726 264.786 28.8757 264.732 29.0332C264.808 29.0878 264.888 29.1425 264.968 29.1958C265.04 28.9928 265.054 28.7677 265.056 28.6154C264.989 28.6167 264.919 28.618 264.846 28.6167ZM264.655 29.2336C264.586 29.3923 264.497 29.5472 264.388 29.6643C264.626 29.6578 264.781 29.5407 264.881 29.3819C264.803 29.3338 264.728 29.2843 264.655 29.2336ZM262.936 29.1516C262.875 29.0631 262.821 28.9733 262.774 28.8861C262.631 28.8705 262.449 28.8484 262.245 28.8132L262.115 28.9889C262.107 29.4509 262.094 29.9233 262.074 30.3944C262.368 29.9818 262.657 29.5654 262.936 29.1516ZM262.644 28.6076C262.625 28.5595 262.608 28.5139 262.592 28.471C262.555 28.4749 262.518 28.4814 262.484 28.4879L262.419 28.5777C262.499 28.5881 262.574 28.5985 262.644 28.6076ZM260.95 27.8919C260.869 27.97 260.793 28.0337 260.726 28.0832L260.751 28.0949C260.828 28.0311 260.894 27.9622 260.95 27.8919ZM260.157 27.7006C260.29 27.6759 260.432 27.6147 260.548 27.4833C260.609 27.413 260.66 27.3453 260.701 27.2816C260.381 27.1358 260.094 26.9588 259.844 26.7767C259.733 26.9042 259.62 27.0356 259.504 27.1749C259.74 27.3779 259.962 27.5509 260.157 27.7006ZM259.083 27.6889L259.025 27.7605C258.887 27.9335 258.757 28.078 258.636 28.199C258.887 28.3109 259.179 28.3929 259.513 28.4202C259.934 28.4541 260.255 28.3825 260.498 28.2589C260.471 28.2433 260.445 28.2276 260.418 28.212L260.416 28.2198C259.835 28.0741 259.585 27.9804 259.083 27.6889ZM256.087 23.0054C256.06 22.5213 256.135 22.0515 256.212 21.721C256.071 22.0008 256.027 22.412 256.067 22.8401C256.073 22.8948 256.079 22.9494 256.087 23.0054ZM263.856 14.2162C264.103 14.3281 264.318 14.4648 264.505 14.6157C264.028 14.6951 263.597 14.8734 263.214 15.1102C263.048 14.9606 262.847 14.8252 262.608 14.712C262.562 14.6899 262.517 14.6704 262.471 14.6522C262.784 14.4244 263.277 14.1668 263.856 14.2162ZM262.242 14.414C262.454 14.2553 262.747 14.0783 263.096 13.9742C262.816 13.9182 262.509 13.8883 262.169 13.8922C262.195 14.0327 262.221 14.211 262.242 14.414ZM271.89 18.1397C271.784 18.1371 271.64 18.1618 271.486 18.2686C271.604 18.4677 271.699 18.6837 271.763 18.9166C271.886 18.7696 272.013 18.6277 272.14 18.4963C272.065 18.3727 271.98 18.2529 271.89 18.1397ZM271.146 18.6733C270.953 19.0494 270.861 19.5816 270.821 19.8848C270.821 19.9434 270.821 20.0019 270.817 20.0618C270.815 20.1034 270.811 20.1451 270.808 20.1867C270.953 19.9733 271.142 19.7065 271.354 19.4293C271.331 19.1535 271.258 18.9023 271.146 18.6733ZM270.675 18.9999C270.745 18.7683 270.836 18.5379 270.956 18.3544C270.511 17.722 269.77 17.2939 269.113 17.018C269.139 17.0869 269.167 17.1598 269.193 17.2366C269.703 17.5554 270.382 18.1215 270.675 18.9999ZM271.303 17.9992C271.417 17.9211 271.528 17.873 271.633 17.8456C270.827 17.0089 269.685 16.4883 268.971 16.2229C268.957 16.2879 268.943 16.353 268.93 16.4194C269.696 16.7005 270.693 17.195 271.303 17.9992ZM272.577 21.2759C272.849 21.2018 273.16 21.0326 273.365 20.6552L273.384 20.6656C273.555 20.1711 273.59 19.648 273.579 19.2289C273.448 19.4124 273.294 19.5972 273.117 19.7729L273.056 19.903C273.073 20.499 272.89 20.9441 272.577 21.2759ZM273.008 21.38C272.709 21.5466 272.399 21.5843 272.197 21.5882C271.85 21.8121 271.422 21.9552 270.962 22.0424L270.96 22.0697C270.974 22.0984 270.988 22.127 271.003 22.1569C271.312 22.2233 271.855 22.2714 272.377 21.9891C272.573 21.8485 272.773 21.6676 272.963 21.4373C272.978 21.4178 272.994 21.3996 273.008 21.38ZM270.044 23.1069C270.254 23.0288 270.48 22.8557 270.606 22.4875C270.567 22.3769 270.517 22.2793 270.465 22.196C270.438 22.2168 270.409 22.2363 270.382 22.2558C270.329 22.5695 270.195 22.861 270.044 23.1069ZM270.668 21.367C270.649 21.2616 270.623 21.1627 270.594 21.0716C270.545 21.1965 270.487 21.3163 270.426 21.4321C270.455 21.4542 270.487 21.4802 270.524 21.5128C270.572 21.4659 270.621 21.4178 270.668 21.367ZM270.757 20.7619C270.798 20.866 270.84 20.9857 270.875 21.1172C270.965 20.9961 271.047 20.8647 271.116 20.7229C270.991 20.7398 270.871 20.7528 270.757 20.7619ZM270.693 22.9078C270.465 23.2566 270.143 23.3776 269.89 23.4127C269.893 23.4361 269.894 23.4596 269.897 23.483C270.135 23.4843 270.389 23.483 270.653 23.4817L270.655 23.47C270.696 23.2618 270.705 23.0744 270.693 22.9078ZM271.773 22.3196C271.501 22.356 271.253 22.3352 271.063 22.3014C271.085 22.3586 271.103 22.4198 271.12 22.4823C271.28 22.4666 271.51 22.4237 271.773 22.3196ZM267.638 27.7331C267.673 27.7826 267.682 27.8229 267.674 27.8463C267.696 27.914 267.669 27.9179 267.598 27.862C267.578 27.8529 267.554 27.8346 267.53 27.8099C267.449 27.8659 267.366 27.9205 267.278 27.9752C266.707 28.3356 266.164 28.5009 265.686 28.5556C265.822 28.7612 266.067 29.188 266.236 29.8192C266.465 29.8881 266.695 29.9311 266.922 29.9363C267.623 29.9506 268.355 29.8855 268.381 29.028C268.387 28.7976 268.336 28.5634 268.263 28.3643C268.171 28.1131 268.008 27.8333 267.841 27.5822C267.775 27.6329 267.708 27.6824 267.638 27.7331ZM265.42 28.5855C265.382 28.5907 265.337 28.5959 265.285 28.5998C265.285 28.7807 265.265 29.0644 265.168 29.3208C265.433 29.4834 265.717 29.6292 266.004 29.7398C265.812 29.1594 265.555 28.7677 265.42 28.5855ZM262.175 28.5035L262.122 28.4332L262.121 28.5269L262.152 28.5334L262.175 28.5035ZM262.985 27.7904C263.162 27.8984 263.348 27.9817 263.488 27.9661C263.64 27.9492 263.757 27.8633 263.843 27.7696L263.985 27.547C263.689 27.6043 263.436 27.6498 263.281 27.6707C263.206 27.6811 263.13 27.6889 263.053 27.6954L262.985 27.7904ZM260.394 26.1624C260.51 26.2874 260.675 26.4474 260.864 26.5802C261.022 26.4487 261.186 26.2483 261.296 25.949L260.976 25.5547C260.799 25.733 260.604 25.9347 260.394 26.1624ZM261.37 26.8144C261.559 26.8508 261.749 26.8222 261.923 26.683C261.922 26.3967 261.919 26.1377 261.917 25.9139L261.811 25.9763C261.706 26.355 261.542 26.6244 261.37 26.8144ZM262.116 26.5112C262.246 26.385 262.338 26.2691 262.404 26.1663L262.124 25.7902L262.107 25.8007L262.116 26.5112ZM262.487 27.0669C262.605 27.0916 262.881 27.1462 263.16 27.1866C263.285 27.0148 263.408 26.8469 263.527 26.6843C263.36 26.6153 263.177 26.5255 262.993 26.4071C262.895 26.5385 262.797 26.6686 262.698 26.7988C262.627 26.8873 262.557 26.9771 262.487 27.0669ZM263.393 27.2152C263.52 27.2282 263.64 27.236 263.732 27.2308C263.766 27.2295 263.8 27.2256 263.835 27.2191C263.92 27.1957 264.002 27.1697 264.084 27.1423C264.173 27.1033 264.255 27.0577 264.323 27.0135L264.354 26.964C264.263 26.9237 264.202 26.8925 264.177 26.8795C264.127 26.8703 263.95 26.8365 263.714 26.7532C263.609 26.9042 263.502 27.0577 263.393 27.2152ZM260.69 17.6791C260.603 17.7246 260.514 17.7767 260.427 17.8365C260.216 17.9797 260.051 18.1449 259.921 18.3167C260.042 18.3401 260.173 18.3688 260.314 18.4065C260.431 18.4377 260.54 18.4677 260.643 18.4976L260.783 18.3701L260.69 17.6791ZM263.903 16.1656C264.166 16.137 264.595 16.0953 265.076 16.0719C265.253 16.0641 265.402 16.0615 265.524 16.0641C265.455 15.8741 265.361 15.6646 265.234 15.4538C264.59 15.4954 264.108 15.6438 263.756 15.8168C263.816 15.9353 263.865 16.0524 263.903 16.1656ZM265.568 16.1955C265.442 16.1916 265.282 16.1929 265.082 16.2033C264.81 16.2164 264.555 16.2359 264.336 16.2541C264.857 16.284 265.282 16.3803 265.624 16.3998C265.61 16.3361 265.592 16.2684 265.568 16.1955ZM256.842 21.639C256.89 21.7483 256.852 21.8745 256.757 21.9396C256.773 22.166 256.805 22.4042 256.86 22.6579C256.922 22.9481 256.995 23.224 257.076 23.4843C257.133 23.198 257.262 22.8818 257.527 22.6111C257.403 22.3326 257.27 21.9943 257.151 21.6156C256.808 21.57 256.842 21.639 256.842 21.639ZM256.774 21.1926C256.844 21.1783 256.926 21.1692 257.021 21.1666C257.008 21.1185 256.997 21.0703 256.985 21.0222C256.925 21.0599 256.855 21.1068 256.778 21.1614L256.774 21.1926ZM257.617 21.2148C257.772 21.2395 257.945 21.2759 258.139 21.3228C258.058 20.892 258.06 20.5277 258.125 20.2206C258.213 19.7989 258.421 19.4879 258.708 19.2654C258.687 19.2029 258.664 19.1261 258.641 19.0402C258.178 19.4241 257.633 20.1099 257.617 21.2148ZM258.494 21.4191C258.563 21.4399 258.63 21.4594 258.693 21.4802C258.67 21.1627 258.719 20.7619 258.955 20.3116C259.014 20.201 259.08 20.1021 259.152 20.0149C259.141 19.8991 259.129 19.6597 259.168 19.3656C259.136 19.3812 259.103 19.3981 259.072 19.4163C258.761 19.5946 258.533 19.8757 258.446 20.2882C258.382 20.5914 258.392 20.9649 258.494 21.4191ZM258.744 22.0125L258.657 21.9826L258.673 22.0268L258.744 22.0125ZM258.273 21.868C258.224 21.8537 258.172 21.8407 258.118 21.8264C257.935 21.7782 257.779 21.7405 257.643 21.7106C257.652 21.7847 257.663 21.8615 257.677 21.9396C257.733 22.088 257.789 22.2272 257.845 22.3547C257.989 22.2623 258.157 22.1804 258.355 22.1153C258.325 22.0307 258.298 21.9487 258.273 21.868ZM261.024 28.4996L261.016 28.5764L261.07 28.5165L261.024 28.4996ZM273.992 18.2412C273.97 18.2686 273.946 18.2985 273.924 18.331C273.859 18.4247 273.794 18.5236 273.73 18.6264C273.734 18.6603 273.739 18.6954 273.743 18.7344C273.849 18.5496 273.931 18.3805 273.992 18.2412ZM273.562 18.9101C273.48 19.0559 273.401 19.2016 273.33 19.3448C273.418 19.2354 273.499 19.1235 273.57 19.0155L273.562 18.9101ZM273.039 19.6323C273.177 19.3435 273.349 19.0077 273.539 18.6889C273.52 18.5366 273.5 18.4377 273.496 18.4182V18.4143C273.391 17.856 273.029 17.9471 272.599 18.3115C272.829 18.7019 272.987 19.1417 273.039 19.6323ZM258.324 25.2099C258.467 24.9977 258.692 24.7414 259.027 24.5267C258.751 24.3028 258.419 23.9944 258.116 23.6027C257.815 23.945 257.746 24.3328 257.762 24.6568C257.853 24.7752 258.058 25.0199 258.324 25.2099ZM259.122 24.6607C258.804 24.8611 258.593 25.1018 258.459 25.2996C258.701 25.448 258.841 25.5157 258.909 25.5443L258.98 25.4935L258.981 25.4948C258.989 25.4428 259.001 25.3517 259.018 25.1929C259.04 25.0081 259.084 24.8077 259.122 24.6607ZM262.273 15.105C262.273 15.1519 262.272 15.2 262.27 15.2482C262.262 15.4525 262.238 15.6984 262.208 15.9535C262.387 15.7609 262.583 15.5748 262.797 15.4043C262.682 15.3132 262.549 15.2299 262.397 15.1584C262.355 15.1402 262.315 15.1219 262.273 15.105ZM262.129 16.5651C262.103 16.7434 262.077 16.9139 262.052 17.0687C262.138 16.9646 262.237 16.8644 262.335 16.7733L262.129 16.5651ZM261.753 14.47C261.733 14.2774 261.709 14.1082 261.685 13.9781C261.409 14.1498 261.167 14.332 260.959 14.5103C261.197 14.4609 261.464 14.4387 261.753 14.47ZM271.024 16.7148C271.292 16.5586 271.765 16.2541 272.13 15.8559C272.026 15.8221 271.893 15.8064 271.724 15.826C271.545 15.8455 271.363 15.8897 271.188 15.947C271.061 16.107 270.923 16.3074 270.782 16.5586C270.862 16.6081 270.943 16.6601 271.024 16.7148ZM270.67 16.4896C270.77 16.3127 270.869 16.1591 270.964 16.0277C270.729 16.1201 270.517 16.2268 270.36 16.314C270.461 16.3686 270.566 16.4272 270.67 16.4896ZM272.545 20.2362C272.296 20.3962 272.015 20.5277 271.7 20.6136C271.584 20.9493 271.413 21.2408 271.211 21.4933C271.902 21.2981 272.434 20.9194 272.545 20.2362ZM270.18 20.7749C270.081 20.771 269.989 20.7645 269.901 20.7554C269.969 20.827 270.035 20.9064 270.094 20.9948C270.126 20.9233 270.154 20.8504 270.18 20.7749ZM269.742 20.6044C269.884 20.6266 270.044 20.6409 270.222 20.6461C270.278 20.4535 270.314 20.2505 270.325 20.0384C270.37 19.0884 269.895 18.426 269.405 17.9992C269.468 18.3076 269.493 18.5796 269.489 18.819C269.528 19.1157 269.55 19.4319 269.543 19.7586C269.537 20.0006 269.527 20.2271 269.515 20.4353C269.59 20.486 269.666 20.542 269.742 20.6044ZM270.746 20.6318C270.883 20.6214 271.027 20.6044 271.181 20.5823C271.284 20.3325 271.35 20.054 271.361 19.7417C271.087 20.1177 270.862 20.4548 270.746 20.6318ZM271.747 20.4626C272.052 20.3702 272.322 20.231 272.562 20.067C272.564 20.0175 272.566 19.9681 272.564 19.916C272.553 19.4528 272.429 19.0363 272.233 18.6642C272.093 18.8138 271.951 18.9791 271.813 19.1496C271.829 19.2354 271.84 19.3226 271.846 19.4137C271.876 19.8002 271.837 20.149 271.747 20.4626ZM269.379 19.5347C269.282 19.838 269.138 20.0501 269.013 20.188C269.113 20.2245 269.23 20.2739 269.355 20.3416C269.364 20.1581 269.372 19.9629 269.377 19.756C269.379 19.6805 269.379 19.6076 269.379 19.5347ZM268.668 19.5178C268.686 19.553 268.705 19.5881 268.723 19.6232C268.736 19.6506 268.749 19.6779 268.762 19.7052C268.824 19.5738 268.921 19.2654 268.811 18.7579C268.66 18.0577 268.304 18.629 268.304 18.629C268.489 18.8333 268.607 19.2459 268.668 19.5178ZM269.001 20.5355C269.064 20.9922 269.018 21.3957 268.967 21.6533C269.055 21.6585 269.144 21.6637 269.234 21.6676C269.267 21.4269 269.303 21.1055 269.332 20.7085C269.216 20.6331 269.103 20.5771 269.001 20.5355ZM259.794 17.9549C259.919 17.8157 260.068 17.683 260.243 17.5632C260.478 17.4032 260.713 17.2926 260.941 17.2171C260.842 17.2301 260.738 17.247 260.634 17.2691L260.618 17.2926C260.618 17.2926 260.609 17.2874 260.595 17.2769C260.324 17.3355 260.043 17.4266 259.783 17.5632C259.681 17.6166 259.591 17.6686 259.511 17.7207C259.606 17.7962 259.715 17.8834 259.794 17.9549ZM259.245 20.4639C259.041 20.853 258.998 21.1939 259.018 21.4581C259.093 21.1992 259.211 20.879 259.395 20.5264C259.556 20.2153 259.775 19.9811 259.995 19.8067C259.712 19.9199 259.427 20.1177 259.245 20.4639ZM257.688 22.9442C257.218 23.5259 257.396 24.2677 257.396 24.2716L257.366 24.2781C257.408 24.3757 257.451 24.4707 257.494 24.5631C257.494 24.1922 257.598 23.7628 257.954 23.3854C257.861 23.2474 257.771 23.1004 257.688 22.9442ZM258.224 16.8579C258.179 16.7941 258.101 16.69 257.98 16.556C257.609 16.9998 257.382 17.5086 257.258 18.0447C257.754 18.0213 258.163 18.1293 258.407 18.2191C258.432 18.1579 258.467 18.0864 258.516 18.007C258.407 17.7793 258.23 17.342 258.224 16.8579ZM266.309 13.3808C266.246 13.3365 266.183 13.2936 266.114 13.2506C266.202 13.2688 266.287 13.2884 266.369 13.3092L266.309 13.3808ZM269.488 20.8205C269.461 21.1666 269.429 21.4516 269.4 21.6728C269.496 21.6754 269.591 21.6767 269.688 21.6754C269.769 21.5687 269.846 21.4568 269.916 21.3384C269.803 21.1185 269.649 20.9493 269.488 20.8205ZM269.345 23.4791L269.394 23.4257V23.4218C269.366 23.1941 269.31 23.0002 269.245 22.8401L269.217 22.8492C269.131 22.9195 269.048 22.9833 268.967 23.0431C268.964 23.1225 268.966 23.2123 268.98 23.3151C268.987 23.3633 268.994 23.4153 269 23.4687C269.112 23.4739 269.226 23.4765 269.345 23.4791ZM270.558 23.8109C270.327 23.8122 270.104 23.8122 269.893 23.8109C269.877 24.0126 269.833 24.1922 269.781 24.3445C269.906 24.3848 270.036 24.4251 270.173 24.4642C270.323 24.2924 270.46 24.0777 270.558 23.8109ZM269.787 22.9013C269.86 22.7803 269.927 22.6475 269.979 22.507C269.88 22.5616 269.786 22.6098 269.699 22.6514C269.73 22.7282 269.76 22.8115 269.787 22.9013ZM269.548 24.8273C269.505 24.891 269.476 24.9262 269.476 24.9262L269.286 24.7687L269.216 24.7531L269.377 25.0498C269.452 25.0186 269.575 24.96 269.718 24.865L269.548 24.8273ZM259.335 25.9009L259.368 25.9347C259.547 26.0791 259.832 26.0297 259.832 26.0297C259.832 26.0297 259.688 25.8944 259.584 25.7811C259.479 25.6679 259.334 25.3699 259.334 25.3699C259.334 25.3699 259.207 25.7343 259.335 25.9009ZM261.827 27.6264C261.702 27.603 261.573 27.5744 261.441 27.5405C261.369 27.7383 261.241 27.9947 261.015 28.2159C261.093 28.2472 261.174 28.2771 261.254 28.3044C261.438 28.0923 261.629 27.8646 261.827 27.6264ZM256.775 27.0603C256.771 27.0148 256.805 26.9758 256.849 26.9719C256.895 26.9679 256.934 27.0005 256.939 27.046C256.939 27.0525 257.121 29.0813 258.255 28.2979C257.392 27.793 257.041 26.9836 257.039 26.981C257.01 26.9146 257.039 26.8365 257.106 26.8079C257.172 26.778 257.25 26.8079 257.279 26.8743C257.28 26.8769 257.622 27.6681 258.474 28.1209C258.604 28.0025 258.744 27.8503 258.896 27.659L258.939 27.6043C258.723 27.469 258.503 27.3076 258.293 27.1124C257.781 26.6426 257.451 26.0713 257.253 25.6393C256.795 25.9373 256.317 26.4878 256.449 27.4703C256.515 27.9674 256.71 28.3422 256.971 28.6011C257.194 28.8249 257.468 28.9642 257.746 29.024C258.025 29.0826 258.31 29.0631 258.559 28.9681C258.752 28.8952 258.924 28.7768 259.054 28.6167C258.822 28.5634 258.613 28.4853 258.425 28.3916C256.999 29.5615 256.775 27.0695 256.775 27.0603ZM259.126 27.3701L259.209 27.2647C258.719 26.8274 258.183 26.26 257.71 25.504L257.621 25.4441C257.586 25.4584 257.551 25.4753 257.513 25.4935C257.697 25.9009 258.008 26.4461 258.496 26.8938C258.701 27.0838 258.916 27.2412 259.126 27.3701ZM259.371 27.0577L259.641 26.7129L259.188 26.8873C259.25 26.9471 259.312 27.0031 259.371 27.0577ZM260.221 25.9594C260.402 25.7226 260.567 25.5027 260.716 25.3035C260.539 25.1955 260.226 25.0628 259.996 25.2853C259.741 25.53 260.048 25.8254 260.221 25.9594ZM259.336 27.3766L259.271 27.4559C259.414 27.5366 259.554 27.6056 259.682 27.6629C259.572 27.5757 259.456 27.4807 259.336 27.3766ZM261.923 27.767C261.753 27.9739 261.585 28.1717 261.425 28.3591C261.59 28.4085 261.757 28.4502 261.917 28.4853C261.919 28.2393 261.922 27.9986 261.923 27.767ZM258.746 17.7168C258.808 17.6504 258.88 17.5828 258.963 17.5138C258.921 17.2158 258.861 16.4337 259.237 15.7219C259.165 15.7401 259.093 15.7622 259.021 15.7895C258.329 16.392 258.558 17.2665 258.746 17.7168ZM260.518 16.7915C260.623 16.7694 260.727 16.7512 260.828 16.7369C260.77 16.5092 260.75 16.1903 260.901 15.8247C260.75 15.7765 260.593 15.7349 260.436 15.7049C260.315 16.2346 260.403 16.5807 260.518 16.7915ZM258.289 18.4559C258.056 18.3727 257.671 18.2764 257.205 18.3115C257.17 18.521 257.15 18.7331 257.141 18.9452C257.134 19.1287 257.136 19.3109 257.146 19.4931C257.537 18.9505 258.005 18.6212 258.289 18.4559ZM255.41 19.8939C255.427 19.9824 255.454 20.0657 255.488 20.1425C255.529 20.2323 255.579 20.3116 255.635 20.3793C255.759 20.5277 255.893 20.6083 256.004 20.6279C256.048 20.6357 256.086 20.6331 256.116 20.6214C256.139 20.6123 256.158 20.5953 256.171 20.5706C256.196 20.5251 256.2 20.4522 256.177 20.3559C256.132 20.1789 255.853 20.0175 255.555 19.9291C255.505 19.916 255.457 19.9043 255.41 19.8939ZM255.248 20.2518C255.194 20.1334 255.155 20.0032 255.138 19.8653C255.045 19.8653 254.964 19.8796 254.909 19.9095V19.9108C254.871 19.9317 254.848 19.9616 254.845 20.0045C254.835 20.2362 255.085 20.3077 255.285 20.3286C255.272 20.3025 255.259 20.2778 255.248 20.2518ZM263.449 15.3523C263.499 15.4121 263.546 15.4746 263.589 15.5358C263.944 15.3575 264.413 15.2026 265.021 15.1415C264.959 15.0621 264.893 14.984 264.821 14.9085C264.778 14.9124 264.734 14.9176 264.69 14.9228C264.231 14.9775 263.817 15.1336 263.449 15.3523ZM263.425 16.284C263.399 16.2138 263.369 16.1435 263.334 16.0706C263.196 16.1734 263.097 16.2697 263.031 16.3439C263.135 16.3257 263.27 16.3035 263.425 16.284ZM265.917 15.0907C266.112 15.0842 266.295 15.0816 266.464 15.0803C266.269 15.0152 266.055 14.9619 265.821 14.928C265.855 14.9814 265.886 15.0361 265.917 15.0907ZM273.292 25.3608C273.087 25.3569 272.875 25.3465 272.657 25.3296C272.736 25.4584 272.853 25.5911 272.992 25.5911C273.134 25.5898 273.232 25.4727 273.292 25.3608ZM256.892 20.6083C256.874 20.6708 256.857 20.7346 256.842 20.7996L256.921 20.7502C256.912 20.7033 256.902 20.6565 256.892 20.6083ZM255.909 23.4413C255.858 23.2513 255.824 23.0561 255.806 22.8636C255.788 22.6775 255.786 22.4927 255.799 22.3183C255.72 22.5395 255.693 22.7803 255.75 23.0366C255.781 23.1707 255.836 23.306 255.909 23.4413ZM268.495 22.779C268.565 22.7308 268.642 22.6775 268.72 22.6189C268.733 22.5929 268.742 22.5629 268.746 22.5304C268.777 22.2845 268.532 22.196 268.532 22.196C268.532 22.196 268.556 22.5473 268.469 22.7009C268.44 22.7516 268.457 22.7764 268.495 22.779ZM260.403 23.971C260.403 23.971 260.579 24.135 260.731 24.1219C260.882 24.1089 260.946 23.9202 260.946 23.9202C260.946 23.9202 260.681 23.9892 260.403 23.971ZM266.755 25.4766C266.786 25.4831 267.127 25.6159 267.442 25.2749C267.757 24.934 267.631 24.4928 267.631 24.4928C267.631 24.4928 267.53 24.8468 267.221 25.1175C266.913 25.3881 266.755 25.4766 266.755 25.4766ZM266.673 24.8702C266.673 24.8702 266.868 24.9392 267.077 24.7817C267.285 24.6243 267.165 24.3588 267.165 24.3588L266.673 24.8702ZM267.651 25.6601C267.651 25.6601 268.073 25.6354 268.236 25.3946C268.4 25.1552 268.141 24.7635 268.141 24.7635C268.141 24.7635 268.154 24.934 268.053 25.2489C267.952 25.5651 267.651 25.6601 267.651 25.6601ZM267.933 19.9928C267.933 19.9928 267.949 20.4053 268.166 20.4665C268.383 20.5264 268.33 20.2362 268.33 20.2362C268.33 20.2362 268.252 20.2648 268.128 20.2336C268.004 20.201 267.933 19.9928 267.933 19.9928ZM267.794 19.2745C267.794 19.2745 267.712 19.5894 267.844 19.7286C267.977 19.8679 268.25 19.9238 268.25 19.9238C268.25 19.9238 268.031 19.4918 267.794 19.2745ZM267.99 18.3583C267.99 18.3583 268.116 17.9289 267.952 17.7337C267.788 17.5385 267.38 17.6075 267.38 17.6075L267.99 18.3583ZM266.95 18.2699C266.95 18.2699 266.995 17.8912 266.622 17.4995C266.25 17.1078 265.898 17.4747 265.898 17.4747C265.898 17.4747 266.39 17.6517 266.559 17.8157C266.73 17.9797 266.95 18.2699 266.95 18.2699ZM260.016 21.2486C260.044 21.1354 260.226 20.9428 260.226 20.9428C260.226 20.9428 260.013 20.9142 259.978 21.0183C259.944 21.1224 260.016 21.2486 260.016 21.2486ZM259.25 23.4153C259.25 23.4153 259.168 23.5481 259.348 23.686C259.528 23.8252 259.962 23.5728 259.962 23.5728C259.962 23.5728 259.823 23.5858 259.634 23.5533C259.446 23.522 259.25 23.4153 259.25 23.4153ZM260.292 22.9846C260.292 22.9846 260.203 23.1993 260.21 23.47C260.216 23.742 260.424 23.8422 260.424 23.8422C260.424 23.8422 260.288 23.5103 260.292 22.9846ZM262.491 25.2489C262.491 25.2489 262.553 25.6848 262.97 25.8046C263.05 25.828 263.128 25.8371 263.203 25.8371H263.206H263.21H263.214H263.217H263.221H263.225H263.229H263.233H263.236H263.24H263.244H263.248H263.251H263.252H263.256H263.26H263.264H263.268H263.27H263.272H263.275H263.279H263.283H263.287H263.29H263.291H263.295H263.299H263.303H263.307H263.308H263.311H263.314H263.318H263.322H263.326H263.328H263.33H263.334H263.338H263.342H263.346H263.348H263.352H263.356H263.36H263.363H263.367L263.37 25.8358H263.374H263.378H263.381L263.385 25.8345H263.389H263.393L263.395 25.8332H263.398H263.399H263.402H263.406L263.408 25.8319L263.411 25.8306H263.412H263.413L263.42 25.8293L263.423 25.828L263.425 25.8267H263.426H263.429L263.432 25.8254L263.434 25.8241C263.628 25.7798 263.758 25.69 263.757 25.69C263.757 25.69 263.676 25.69 263.54 25.6705H263.537H263.536H263.534H263.532H263.529H263.527H263.524H263.521H263.519H263.516H263.514H263.512H263.511H263.508H263.506H263.503H263.501H263.498H263.495H263.493H263.49H263.489H263.488H263.485H263.482H263.48H263.477H263.475H263.472H263.469H263.467H263.465H263.464H263.462H263.459H263.456H263.454H263.451H263.449H263.446H263.443H263.442H263.441H263.438H263.436H263.433H263.43H263.428H263.425H263.423L263.42 25.6692H263.419H263.417H263.415L263.412 25.6679H263.409H263.407H263.404H263.402L263.399 25.6666L263.396 25.6653H263.395H263.393L263.39 25.664L263.387 25.6627H263.385H263.382H263.38L263.377 25.6614H263.374H263.372C263.316 25.6497 263.255 25.6354 263.187 25.6172C262.815 25.4896 262.491 25.2489 262.491 25.2489ZM265.086 26.5281C265.086 26.5281 264.972 26.683 265.13 26.778C265.287 26.873 265.464 26.8183 265.329 26.7558C265.194 26.6921 265.086 26.5281 265.086 26.5281ZM265.338 26.2028C265.338 26.2028 265.722 26.7077 266.101 26.7207C266.479 26.7337 266.806 25.7994 266.806 25.7994C266.806 25.7994 266.662 25.9828 266.276 26.165C265.892 26.3472 265.338 26.2028 265.338 26.2028Z" fill="#FEFEFE"/>
<mask id="mask0_1603_322" style="mask-type:luminance" maskUnits="userSpaceOnUse" x="304" y="0" width="46" height="46">
<mask id="mask1_1603_322" style="mask-type:luminance" maskUnits="userSpaceOnUse" x="304" y="0" width="46" height="46">
<mask id="mask2_1603_322" style="mask-type:luminance" maskUnits="userSpaceOnUse" x="304" y="0" width="46" height="46">
<path d="M350 0H304V46H350V0Z" fill="white"/>
</mask>
<g mask="url(#mask2_1603_322)">
<path d="M327 46C331.549 46 335.996 44.6511 339.778 42.1238C343.56 39.5966 346.508 36.0044 348.249 31.8017C349.99 27.599 350.446 22.9745 349.558 18.5129C348.671 14.0514 346.48 9.95317 343.263 6.73656C340.047 3.51996 335.949 1.3294 331.487 0.441943C327.026 -0.445517 322.401 0.00998239 318.198 1.7508C313.996 3.49161 310.403 6.43955 307.876 10.2219C305.349 14.0042 304 18.4511 304 23C304 29.1 306.423 34.9501 310.737 39.2635C315.05 43.5768 320.9 46 327 46Z" fill="white"/>
</g>
</mask>
<g mask="url(#mask1_1603_322)">
<path d="M194.98 -586.5H654.98V949.9H194.98V-586.5Z" fill="white"/>
</g>
</mask>
<g mask="url(#mask0_1603_322)">
<path d="M352.3 -2.2998H301.7V48.3002H352.3V-2.2998Z" fill="#DF0016"/>
</g>
<mask id="mask3_1603_322" style="mask-type:luminance" maskUnits="userSpaceOnUse" x="313" y="12" width="13" height="21">
<mask id="mask4_1603_322" style="mask-type:luminance" maskUnits="userSpaceOnUse" x="304" y="0" width="46" height="46">
<path d="M350 0H304V46H350V0Z" fill="white"/>
</mask>
<g mask="url(#mask4_1603_322)">
<path d="M316.852 12.1602V19.9802C318.041 18.5588 319.47 17.8434 321.126 17.8434C321.919 17.8319 322.705 17.9985 323.426 18.331C324.043 18.5963 324.577 19.022 324.974 19.5638C325.322 20.0655 325.563 20.6329 325.684 21.2313C325.837 22.1669 325.901 23.115 325.875 24.0627V32.43H322.17V24.8952C322.17 23.4002 322.103 22.4527 321.963 22.0502C321.83 21.6562 321.567 21.3189 321.218 21.0933C320.82 20.8399 320.355 20.7139 319.884 20.7322C319.303 20.7229 318.733 20.8827 318.242 21.1922C317.74 21.5171 317.365 22.0042 317.179 22.5722C316.954 23.1855 316.842 24.0918 316.845 25.2908V32.4346H313.152V12.1624H316.852" fill="white"/>
</g>
</mask>
<g mask="url(#mask3_1603_322)">
<path d="M328.178 9.86035H310.852V34.7325H328.178V9.86035Z" fill="white"/>
</g>
<mask id="mask5_1603_322" style="mask-type:luminance" maskUnits="userSpaceOnUse" x="327" y="12" width="14" height="21">
<mask id="mask6_1603_322" style="mask-type:luminance" maskUnits="userSpaceOnUse" x="304" y="0" width="46" height="46">
<path d="M350 0H304V46H350V0Z" fill="white"/>
</mask>
<g mask="url(#mask6_1603_322)">
<path d="M331.425 12.16V19.98C332.617 18.5586 334.041 17.8464 335.699 17.8433C336.492 17.833 337.278 17.9995 337.999 18.3309C338.613 18.5974 339.146 19.023 339.542 19.5637C339.889 20.0659 340.131 20.6331 340.253 21.2312C340.405 22.1669 340.468 23.1149 340.444 24.0625V32.4299H336.752V24.8951C336.752 23.4001 336.682 22.4517 336.543 22.05C336.41 21.656 336.147 21.3187 335.798 21.0932C335.399 20.8394 334.933 20.7134 334.461 20.7321C333.882 20.7232 333.312 20.883 332.821 21.1921C332.322 21.519 331.947 22.0054 331.759 22.5721C331.538 23.1854 331.427 24.0916 331.425 25.2907V32.4299H327.727V12.1577H331.425" fill="white"/>
</g>
</mask>
<g mask="url(#mask5_1603_322)">
<path d="M342.748 9.86035H325.427V34.7325H342.748V9.86035Z" fill="white"/>
</g>
<defs>
<clipPath id="clip0_1603_322">
<rect width="46" height="46" fill="white"/>
</clipPath>
</defs>
</svg>
